<svg xmlns="http://www.w3.org/2000/svg" xmlns:xlink="http://www.w3.org/1999/xlink" width="50" zoomAndPan="magnify" viewBox="0 0 37.5 37.499999" height="50" preserveAspectRatio="xMidYMid meet" version="1.0"><defs><clipPath id="08142e5ea6"><path d="M 12 4.136719 L 25 4.136719 L 25 33 L 12 33 Z M 12 4.136719 " clip-rule="nonzero"/></clipPath></defs><path fill="#975ab6" d="M 11.675781 27.558594 C 11.472656 27.558594 11.269531 27.492188 11.109375 27.363281 L 0.761719 19.222656 C 0.539062 19.046875 0.410156 18.785156 0.410156 18.5 C 0.410156 18.21875 0.539062 17.957031 0.761719 17.78125 L 11.109375 9.640625 C 11.269531 9.511719 11.472656 9.441406 11.675781 9.441406 C 11.957031 9.441406 12.222656 9.570312 12.394531 9.792969 C 12.546875 9.984375 12.617188 10.226562 12.585938 10.46875 C 12.558594 10.710938 12.433594 10.925781 12.242188 11.078125 L 2.8125 18.5 L 12.242188 25.921875 C 12.433594 26.074219 12.558594 26.292969 12.585938 26.535156 C 12.617188 26.777344 12.546875 27.015625 12.394531 27.210938 C 12.222656 27.429688 11.957031 27.558594 11.675781 27.558594 " fill-opacity="1" fill-rule="nonzero"/><path fill="#8c5ff2" d="M 11.675781 9.050781 C 11.382812 9.050781 11.097656 9.152344 10.867188 9.332031 L 0.519531 17.472656 C 0.203125 17.726562 0.0195312 18.097656 0.0195312 18.5 C 0.0195312 18.902344 0.203125 19.277344 0.519531 19.527344 L 10.867188 27.671875 C 11.097656 27.851562 11.382812 27.949219 11.675781 27.949219 C 12.082031 27.949219 12.457031 27.765625 12.703125 27.449219 C 12.921875 27.175781 13.015625 26.835938 12.976562 26.488281 C 12.933594 26.140625 12.757812 25.832031 12.484375 25.617188 L 3.441406 18.5 L 12.484375 11.386719 C 12.757812 11.167969 12.933594 10.859375 12.976562 10.515625 C 13.015625 10.167969 12.921875 9.824219 12.703125 9.550781 C 12.457031 9.234375 12.078125 9.050781 11.675781 9.050781 Z M 11.675781 9.832031 C 11.832031 9.832031 11.988281 9.902344 12.089844 10.03125 C 12.269531 10.261719 12.230469 10.59375 12.003906 10.773438 L 2.179688 18.5 L 12.003906 26.230469 C 12.230469 26.410156 12.269531 26.738281 12.089844 26.96875 C 11.988281 27.101562 11.832031 27.167969 11.675781 27.167969 C 11.5625 27.167969 11.449219 27.132812 11.351562 27.058594 L 1.003906 18.914062 C 0.875 18.816406 0.800781 18.660156 0.800781 18.5 C 0.800781 18.339844 0.875 18.1875 1.003906 18.085938 L 11.351562 9.945312 C 11.445312 9.871094 11.5625 9.832031 11.675781 9.832031 " fill-opacity="1" fill-rule="nonzero"/><path fill="#975ab6" d="M 25.332031 27.558594 C 25.046875 27.558594 24.785156 27.429688 24.609375 27.210938 C 24.296875 26.8125 24.367188 26.234375 24.765625 25.921875 L 34.195312 18.5 L 24.765625 11.078125 C 24.367188 10.765625 24.296875 10.1875 24.609375 9.792969 C 24.785156 9.570312 25.046875 9.441406 25.332031 9.441406 C 25.535156 9.441406 25.738281 9.511719 25.898438 9.640625 L 36.246094 17.78125 C 36.46875 17.957031 36.59375 18.21875 36.59375 18.5 C 36.59375 18.785156 36.46875 19.046875 36.246094 19.222656 L 25.898438 27.363281 C 25.738281 27.492188 25.535156 27.558594 25.332031 27.558594 " fill-opacity="1" fill-rule="nonzero"/><path fill="#8c5ff2" d="M 25.332031 9.050781 C 24.925781 9.050781 24.554688 9.234375 24.304688 9.550781 C 23.855469 10.117188 23.953125 10.941406 24.523438 11.386719 L 33.5625 18.5 L 24.523438 25.617188 C 23.953125 26.0625 23.855469 26.886719 24.304688 27.449219 C 24.554688 27.765625 24.925781 27.949219 25.332031 27.949219 C 25.621094 27.949219 25.90625 27.851562 26.136719 27.671875 L 36.488281 19.527344 C 36.804688 19.277344 36.984375 18.902344 36.984375 18.5 C 36.984375 18.097656 36.804688 17.726562 36.488281 17.472656 L 26.140625 9.332031 C 25.910156 9.152344 25.621094 9.050781 25.332031 9.050781 Z M 25.332031 9.832031 C 25.445312 9.832031 25.558594 9.871094 25.65625 9.945312 L 36.003906 18.085938 C 36.132812 18.1875 36.203125 18.339844 36.203125 18.5 C 36.203125 18.660156 36.132812 18.816406 36.003906 18.914062 L 25.65625 27.058594 C 25.558594 27.132812 25.445312 27.167969 25.332031 27.167969 C 25.175781 27.167969 25.019531 27.101562 24.917969 26.96875 C 24.738281 26.738281 24.777344 26.410156 25.003906 26.230469 L 34.828125 18.5 L 25.003906 10.773438 C 24.777344 10.59375 24.738281 10.261719 24.917969 10.03125 C 25.019531 9.902344 25.175781 9.832031 25.332031 9.832031 " fill-opacity="1" fill-rule="nonzero"/><g clip-path="url(#08142e5ea6)"><path fill="#975ab6" d="M 13.359375 32.472656 C 13.246094 32.472656 13.136719 32.449219 13.03125 32.410156 C 12.800781 32.320312 12.621094 32.148438 12.523438 31.925781 C 12.421875 31.703125 12.417969 31.453125 12.503906 31.226562 L 22.613281 5.117188 C 22.75 4.765625 23.089844 4.53125 23.464844 4.53125 C 23.582031 4.53125 23.691406 4.550781 23.800781 4.59375 C 24.269531 4.773438 24.503906 5.308594 24.320312 5.777344 L 14.214844 31.886719 C 14.082031 32.238281 13.734375 32.472656 13.359375 32.472656 " fill-opacity="1" fill-rule="nonzero"/><path fill="#8c5ff2" d="M 23.464844 4.140625 C 22.929688 4.140625 22.441406 4.476562 22.25 4.976562 L 12.140625 31.082031 C 12.015625 31.410156 12.023438 31.765625 12.164062 32.082031 C 12.308594 32.402344 12.5625 32.648438 12.890625 32.773438 C 13.039062 32.832031 13.199219 32.863281 13.359375 32.863281 C 13.894531 32.863281 14.386719 32.527344 14.578125 32.027344 L 24.6875 5.917969 C 24.945312 5.246094 24.609375 4.488281 23.9375 4.230469 C 23.789062 4.167969 23.628906 4.140625 23.464844 4.140625 Z M 23.464844 4.921875 C 23.53125 4.921875 23.59375 4.933594 23.65625 4.957031 C 23.929688 5.0625 24.0625 5.363281 23.957031 5.636719 L 13.851562 31.746094 C 13.769531 31.953125 13.570312 32.082031 13.359375 32.082031 C 13.296875 32.082031 13.234375 32.070312 13.171875 32.046875 C 12.898438 31.941406 12.765625 31.636719 12.871094 31.367188 L 22.976562 5.257812 C 23.058594 5.046875 23.253906 4.921875 23.464844 4.921875 " fill-opacity="1" fill-rule="nonzero"/></g></svg>