<svg xmlns="http://www.w3.org/2000/svg" xmlns:xlink="http://www.w3.org/1999/xlink" width="500" zoomAndPan="magnify" viewBox="0 0 375 374.999991" height="500" preserveAspectRatio="xMidYMid meet" version="1.0"><defs><clipPath id="e306eb39be"><path d="M 30.917969 42.371094 L 354.167969 42.371094 L 354.167969 323.621094 L 30.917969 323.621094 Z M 30.917969 42.371094 " clip-rule="nonzero"/></clipPath><clipPath id="c25abe3131"><path d="M 30.917969 42.371094 L 354.167969 42.371094 L 354.167969 323.621094 L 30.917969 323.621094 Z M 30.917969 42.371094 " clip-rule="nonzero"/></clipPath><clipPath id="8284a52460"><path d="M 220 42.371094 L 354.167969 42.371094 L 354.167969 196 L 220 196 Z M 220 42.371094 " clip-rule="nonzero"/></clipPath><clipPath id="ecf6ba1ecf"><path d="M 191 42.371094 L 354.167969 42.371094 L 354.167969 196 L 191 196 Z M 191 42.371094 " clip-rule="nonzero"/></clipPath><clipPath id="55ebe05bd5"><path d="M 163 42.371094 L 354.167969 42.371094 L 354.167969 196 L 163 196 Z M 163 42.371094 " clip-rule="nonzero"/></clipPath><clipPath id="309fade1af"><path d="M 321 103 L 329 103 L 329 323.621094 L 321 323.621094 Z M 321 103 " clip-rule="nonzero"/></clipPath><clipPath id="723e3e6557"><path d="M 321 153 L 354.167969 153 L 354.167969 225 L 321 225 Z M 321 153 " clip-rule="nonzero"/></clipPath></defs><rect x="-37.5" width="450" fill="#ffffff" y="-37.499999" height="449.999989" fill-opacity="1"/><rect x="-37.5" width="450" fill="#000000" y="-37.499999" height="449.999989" fill-opacity="1"/><path fill="#975ab6" d="M 339.386719 72.640625 L 134.035156 72.640625 L 134.035156 57.339844 C 134.035156 50.992188 128.902344 45.859375 122.554688 45.859375 L 67.710938 45.859375 C 61.363281 45.859375 56.230469 50.992188 56.230469 57.339844 L 56.230469 72.640625 L 46.035156 72.640625 C 39.6875 72.640625 34.546875 77.785156 34.546875 84.121094 L 34.546875 308.609375 C 34.546875 314.941406 39.6875 320.085938 46.035156 320.085938 L 339.386719 320.085938 C 345.71875 320.085938 350.851562 314.941406 350.851562 308.609375 L 350.851562 84.121094 C 350.851562 77.785156 345.71875 72.640625 339.386719 72.640625 " fill-opacity="1" fill-rule="nonzero"/><g clip-path="url(#e306eb39be)"><path stroke-linecap="butt" transform="matrix(0.139486, 0, 0, -0.139486, -103.843421, 479.519441)" fill="none" stroke-linejoin="miter" d="M 3177.603625 2916.993863 L 1705.398082 2916.993863 L 1705.398082 3026.688159 C 1705.398082 3072.195749 1668.599944 3108.993886 1623.092354 3108.993886 L 1229.906776 3108.993886 C 1184.399186 3108.993886 1147.601049 3072.195749 1147.601049 3026.688159 L 1147.601049 2916.993863 L 1074.508858 2916.993863 C 1029.001268 2916.993863 992.147121 2880.111712 992.147121 2834.688136 L 992.147121 1225.28771 C 992.147121 1179.892139 1029.001268 1143.009988 1074.508858 1143.009988 L 3177.603625 1143.009988 C 3222.999196 1143.009988 3259.797334 1179.892139 3259.797334 1225.28771 L 3259.797334 2834.688136 C 3259.797334 2880.111712 3222.999196 2916.993863 3177.603625 2916.993863 Z M 3177.603625 2916.993863 " stroke="#224c8d" stroke-width="50" stroke-opacity="1" stroke-miterlimit="10"/></g><path fill="#ffffff" d="M 34.546875 106.660156 L 34.546875 308.609375 C 34.546875 314.941406 39.6875 320.085938 46.035156 320.085938 L 339.386719 320.085938 C 345.71875 320.085938 350.851562 314.941406 350.851562 308.609375 L 350.851562 106.660156 L 34.554688 106.660156 " fill-opacity="1" fill-rule="nonzero"/><g clip-path="url(#c25abe3131)"><path stroke-linecap="butt" transform="matrix(0.139486, 0, 0, -0.139486, -103.843421, 479.519441)" fill="none" stroke-linejoin="miter" d="M 992.147121 2673.101185 L 992.147121 1225.28771 C 992.147121 1179.892139 1029.001268 1143.009988 1074.508858 1143.009988 L 3177.603625 1143.009988 C 3222.999196 1143.009988 3259.797334 1179.892139 3259.797334 1225.28771 L 3259.797334 2673.101185 Z M 992.147121 2673.101185 " stroke="#224c8d" stroke-width="50" stroke-opacity="1" stroke-miterlimit="10"/></g><path fill="#975ab6" d="M 318.964844 90.1875 C 318.964844 93.714844 321.824219 96.5625 325.355469 96.5625 C 328.867188 96.5625 331.726562 93.714844 331.726562 90.1875 C 331.726562 86.65625 328.867188 83.8125 325.355469 83.8125 C 321.824219 83.8125 318.964844 86.65625 318.964844 90.1875 " fill-opacity="1" fill-rule="nonzero"/><g clip-path="url(#8284a52460)"><path stroke-linecap="butt" transform="matrix(0.139486, 0, 0, -0.139486, -103.843421, 479.519441)" fill="none" stroke-linejoin="miter" d="M 3031.195206 2791.196882 C 3031.195206 2765.908664 3051.694625 2745.493259 3077.010847 2745.493259 C 3102.187046 2745.493259 3122.686465 2765.908664 3122.686465 2791.196882 C 3122.686465 2816.513104 3102.187046 2836.900505 3077.010847 2836.900505 C 3051.694625 2836.900505 3031.195206 2816.513104 3031.195206 2791.196882 Z M 3031.195206 2791.196882 " stroke="#224c8d" stroke-width="50" stroke-opacity="1" stroke-miterlimit="10"/></g><path fill="#975ab6" d="M 290.59375 90.1875 C 290.59375 93.714844 293.453125 96.5625 296.96875 96.5625 C 300.496094 96.5625 303.355469 93.714844 303.355469 90.1875 C 303.355469 86.65625 300.496094 83.8125 296.96875 83.8125 C 293.453125 83.8125 290.59375 86.65625 290.59375 90.1875 " fill-opacity="1" fill-rule="nonzero"/><g clip-path="url(#ecf6ba1ecf)"><path stroke-linecap="butt" transform="matrix(0.139486, 0, 0, -0.139486, -103.843421, 479.519441)" fill="none" stroke-linejoin="miter" d="M 2827.797282 2791.196882 C 2827.797282 2765.908664 2848.296701 2745.493259 2873.500905 2745.493259 C 2898.789123 2745.493259 2919.288542 2765.908664 2919.288542 2791.196882 C 2919.288542 2816.513104 2898.789123 2836.900505 2873.500905 2836.900505 C 2848.296701 2836.900505 2827.797282 2816.513104 2827.797282 2791.196882 Z M 2827.797282 2791.196882 " stroke="#224c8d" stroke-width="50" stroke-opacity="1" stroke-miterlimit="10"/></g><path fill="#975ab6" d="M 262.207031 90.1875 C 262.207031 93.714844 265.066406 96.5625 268.597656 96.5625 C 272.113281 96.5625 274.972656 93.714844 274.972656 90.1875 C 274.972656 86.65625 272.113281 83.8125 268.597656 83.8125 C 265.066406 83.8125 262.207031 86.65625 262.207031 90.1875 " fill-opacity="1" fill-rule="nonzero"/><g clip-path="url(#55ebe05bd5)"><path stroke-linecap="butt" transform="matrix(0.139486, 0, 0, -0.139486, -103.843421, 479.519441)" fill="none" stroke-linejoin="miter" d="M 2624.287339 2791.196882 C 2624.287339 2765.908664 2644.786758 2745.493259 2670.102981 2745.493259 C 2695.307185 2745.493259 2715.806604 2765.908664 2715.806604 2791.196882 C 2715.806604 2816.513104 2695.307185 2836.900505 2670.102981 2836.900505 C 2644.786758 2836.900505 2624.287339 2816.513104 2624.287339 2791.196882 Z M 2624.287339 2791.196882 " stroke="#224c8d" stroke-width="50" stroke-opacity="1" stroke-miterlimit="10"/></g><g clip-path="url(#309fade1af)"><path stroke-linecap="butt" transform="matrix(0.139486, 0, 0, -0.139486, -103.843421, 479.519441)" fill="none" stroke-linejoin="miter" d="M 3077.010847 2673.101185 L 3077.010847 1143.009988 " stroke="#224c8d" stroke-width="50" stroke-opacity="1" stroke-miterlimit="10"/></g><path fill="#975ab6" d="M 350.851562 220.59375 L 325.355469 220.59375 L 325.355469 157.460938 L 350.851562 157.460938 L 350.851562 220.59375 " fill-opacity="1" fill-rule="nonzero"/><g clip-path="url(#723e3e6557)"><path stroke-linecap="butt" transform="matrix(0.139486, 0, 0, -0.139486, -103.843421, 479.519441)" fill="none" stroke-linejoin="miter" d="M 3259.797334 1856.288953 L 3077.010847 1856.288953 L 3077.010847 2308.900442 L 3259.797334 2308.900442 Z M 3259.797334 1856.288953 " stroke="#224c8d" stroke-width="50" stroke-opacity="1" stroke-miterlimit="10"/></g><path fill="#975ab6" d="M 141.902344 269.398438 C 140.410156 269.398438 138.945312 268.894531 137.773438 267.976562 L 75.03125 218.613281 C 73.414062 217.34375 72.480469 215.429688 72.480469 213.367188 C 72.480469 211.316406 73.414062 209.40625 75.019531 208.121094 L 137.757812 158.773438 C 138.929688 157.851562 140.410156 157.335938 141.902344 157.335938 C 143.953125 157.335938 145.863281 158.269531 147.148438 159.886719 C 148.25 161.28125 148.738281 163.027344 148.527344 164.796875 C 148.320312 166.582031 147.425781 168.160156 146.03125 169.261719 L 89.972656 213.367188 L 146.03125 257.472656 C 147.425781 258.574219 148.320312 260.164062 148.527344 261.9375 C 148.738281 263.707031 148.25 265.449219 147.148438 266.84375 C 145.878906 268.464844 143.964844 269.398438 141.902344 269.398438 " fill-opacity="1" fill-rule="nonzero"/><path fill="#975ab6" d="M 141.902344 153.847656 C 139.628906 153.847656 137.398438 154.617188 135.613281 156.023438 L 72.886719 205.375 C 70.402344 207.339844 68.992188 210.242188 68.992188 213.367188 C 68.992188 216.503906 70.414062 219.421875 72.886719 221.359375 L 135.613281 270.710938 C 137.398438 272.117188 139.628906 272.886719 141.902344 272.886719 C 145.039062 272.886719 147.957031 271.476562 149.894531 268.992188 C 151.570312 266.875 152.308594 264.210938 151.988281 261.515625 C 151.667969 258.824219 150.3125 256.410156 148.179688 254.738281 L 95.605469 213.367188 L 148.179688 171.996094 C 150.3125 170.335938 151.667969 167.921875 151.988281 165.214844 C 152.308594 162.523438 151.570312 159.859375 149.882812 157.726562 C 147.941406 155.257812 145.039062 153.847656 141.902344 153.847656 Z M 141.902344 160.824219 C 142.835938 160.824219 143.773438 161.242188 144.414062 162.035156 C 145.5 163.429688 145.265625 165.425781 143.871094 166.527344 L 84.324219 213.367188 L 143.871094 260.21875 C 145.265625 261.308594 145.5 263.316406 144.414062 264.699219 C 143.773438 265.507812 142.851562 265.910156 141.902344 265.910156 C 141.203125 265.910156 140.507812 265.6875 139.921875 265.226562 L 77.195312 215.878906 C 76.414062 215.277344 75.96875 214.34375 75.96875 213.367188 C 75.96875 212.390625 76.414062 211.46875 77.195312 210.855469 L 139.921875 161.507812 C 140.507812 161.046875 141.203125 160.824219 141.902344 160.824219 " fill-opacity="1" fill-rule="nonzero"/><path fill="#975ab6" d="M 224.671875 269.398438 C 222.609375 269.398438 220.699219 268.464844 219.414062 266.84375 C 217.140625 263.957031 217.644531 259.746094 220.542969 257.472656 L 276.605469 213.367188 L 220.542969 169.261719 C 217.644531 166.988281 217.140625 162.777344 219.414062 159.886719 C 220.699219 158.269531 222.609375 157.335938 224.671875 157.335938 C 226.164062 157.335938 227.628906 157.851562 228.800781 158.773438 L 291.527344 208.121094 C 293.160156 209.40625 294.082031 211.316406 294.082031 213.367188 C 294.082031 215.429688 293.148438 217.34375 291.527344 218.613281 L 228.800781 267.976562 C 227.628906 268.894531 226.164062 269.398438 224.671875 269.398438 " fill-opacity="1" fill-rule="nonzero"/><path fill="#975ab6" d="M 224.671875 153.847656 C 221.535156 153.847656 218.621094 155.257812 216.679688 157.726562 C 213.207031 162.132812 213.976562 168.535156 218.382812 171.996094 L 270.96875 213.367188 L 218.382812 254.738281 C 213.988281 258.199219 213.222656 264.601562 216.679688 269.007812 C 218.621094 271.476562 221.535156 272.886719 224.671875 272.886719 C 226.933594 272.886719 229.164062 272.117188 230.949219 270.722656 L 293.691406 221.359375 C 296.160156 219.421875 297.570312 216.503906 297.570312 213.367188 C 297.570312 210.242188 296.160156 207.339844 293.71875 205.402344 L 230.949219 156.023438 C 229.179688 154.628906 226.945312 153.847656 224.671875 153.847656 Z M 224.671875 160.824219 C 225.371094 160.824219 226.054688 161.046875 226.640625 161.507812 L 289.378906 210.855469 C 290.148438 211.46875 290.59375 212.390625 290.59375 213.367188 C 290.59375 214.34375 290.148438 215.277344 289.378906 215.878906 L 226.640625 265.226562 C 226.054688 265.6875 225.371094 265.910156 224.671875 265.910156 C 223.726562 265.910156 222.789062 265.507812 222.164062 264.699219 C 221.074219 263.316406 221.3125 261.308594 222.691406 260.21875 L 282.238281 213.367188 L 222.691406 166.527344 C 221.3125 165.425781 221.074219 163.429688 222.164062 162.035156 C 222.789062 161.242188 223.726562 160.824219 224.671875 160.824219 " fill-opacity="1" fill-rule="nonzero"/><path fill="#975ab6" d="M 152.113281 299.179688 C 151.289062 299.179688 150.480469 299.039062 149.714844 298.730469 C 148.039062 298.089844 146.714844 296.835938 146.003906 295.203125 C 145.277344 293.570312 145.234375 291.757812 145.878906 290.097656 L 207.140625 131.824219 C 208.128906 129.269531 210.640625 127.554688 213.375 127.554688 C 214.199219 127.554688 215.007812 127.707031 215.789062 128 C 217.449219 128.644531 218.757812 129.898438 219.484375 131.542969 C 220.210938 133.164062 220.25 134.988281 219.609375 136.648438 L 158.332031 294.925781 C 157.34375 297.476562 154.847656 299.179688 152.113281 299.179688 " fill-opacity="1" fill-rule="nonzero"/><path fill="#975ab6" d="M 213.375 124.066406 C 209.203125 124.066406 205.394531 126.675781 203.890625 130.566406 L 142.628906 288.828125 C 141.652344 291.367188 141.722656 294.128906 142.808594 296.613281 C 143.910156 299.109375 145.90625 301.003906 148.445312 301.996094 C 149.628906 302.441406 150.855469 302.664062 152.113281 302.664062 C 156.269531 302.664062 160.078125 300.058594 161.582031 296.179688 L 222.847656 137.90625 C 223.835938 135.367188 223.765625 132.605469 222.679688 130.121094 C 221.578125 127.640625 219.566406 125.726562 217.042969 124.75 C 215.871094 124.304688 214.628906 124.066406 213.375 124.066406 Z M 213.375 131.042969 C 213.765625 131.042969 214.140625 131.113281 214.53125 131.25 C 216.164062 131.894531 216.988281 133.75 216.347656 135.378906 L 155.082031 293.65625 C 154.59375 294.925781 153.382812 295.691406 152.113281 295.691406 C 151.722656 295.691406 151.332031 295.621094 150.953125 295.480469 C 149.308594 294.839844 148.5 293 149.128906 291.351562 L 210.402344 133.09375 C 210.890625 131.824219 212.089844 131.042969 213.375 131.042969 " fill-opacity="1" fill-rule="nonzero"/></svg>